{
	"asset":
	{
		"version": "2.0",
		"generator": "Unreal Engine 5.2.0"
	},
	"scene": 0,
	"accessors": [
		{
			"bufferView": 0,
			"count": 2448,
			"type": "SCALAR",
			"componentType": 5123
		},
		{
			"bufferView": 1,
			"count": 1185,
			"type": "VEC3",
			"componentType": 5126,
			"min": [ -5.71441936, 5.86499977, -0.995624363 ],
			"max": [ 5.40058041, 8.88000011, 1.05687559 ]
		},
		{
			"bufferView": 2,
			"count": 1185,
			"type": "VEC3",
			"componentType": 5126
		},
		{
			"bufferView": 3,
			"count": 1185,
			"type": "VEC4",
			"componentType": 5126
		},
		{
			"bufferView": 4,
			"count": 1185,
			"type": "VEC2",
			"componentType": 5126
		},
		{
			"bufferView": 5,
			"count": 264,
			"type": "SCALAR",
			"componentType": 5121
		},
		{
			"bufferView": 6,
			"count": 186,
			"type": "VEC3",
			"componentType": 5126,
			"min": [ -4.98941946, 4.52250004, -0.20906207 ],
			"max": [ 4.67308044, 7.28999996, 0.210937932 ]
		},
		{
			"bufferView": 7,
			"count": 186,
			"type": "VEC3",
			"componentType": 5126
		},
		{
			"bufferView": 8,
			"count": 186,
			"type": "VEC4",
			"componentType": 5126
		},
		{
			"bufferView": 9,
			"count": 186,
			"type": "VEC2",
			"componentType": 5126
		},
		{
			"bufferView": 10,
			"count": 11130,
			"type": "SCALAR",
			"componentType": 5123
		},
		{
			"bufferView": 11,
			"count": 4005,
			"type": "VEC3",
			"componentType": 5126,
			"min": [ -5.97441959, 6.17000008, -1.13124931 ],
			"max": [ 5.66058016, 8.97999954, 1.19125068 ]
		},
		{
			"bufferView": 12,
			"count": 4005,
			"type": "VEC3",
			"componentType": 5126
		},
		{
			"bufferView": 13,
			"count": 4005,
			"type": "VEC4",
			"componentType": 5126
		},
		{
			"bufferView": 14,
			"count": 4005,
			"type": "VEC2",
			"componentType": 5126
		},
		{
			"bufferView": 15,
			"count": 276,
			"type": "SCALAR",
			"componentType": 5121
		},
		{
			"bufferView": 16,
			"count": 192,
			"type": "VEC3",
			"componentType": 5126,
			"min": [ -6.29999971, 3.92750001, -0.350624621 ],
			"max": [ 6.26499987, 4.95749998, 0.37250036 ]
		},
		{
			"bufferView": 17,
			"count": 192,
			"type": "VEC3",
			"componentType": 5126
		},
		{
			"bufferView": 18,
			"count": 192,
			"type": "VEC4",
			"componentType": 5126
		},
		{
			"bufferView": 19,
			"count": 192,
			"type": "VEC2",
			"componentType": 5126
		},
		{
			"bufferView": 20,
			"count": 330,
			"type": "SCALAR",
			"componentType": 5121
		},
		{
			"bufferView": 21,
			"count": 161,
			"type": "VEC3",
			"componentType": 5126,
			"min": [ -5.66941929, 1.12499988, -0.375937372 ],
			"max": [ 5.35558033, 4.95499992, 0.406875372 ]
		},
		{
			"bufferView": 22,
			"count": 161,
			"type": "VEC3",
			"componentType": 5126
		},
		{
			"bufferView": 23,
			"count": 161,
			"type": "VEC4",
			"componentType": 5126
		},
		{
			"bufferView": 24,
			"count": 161,
			"type": "VEC2",
			"componentType": 5126
		},
		{
			"bufferView": 25,
			"count": 1080,
			"type": "SCALAR",
			"componentType": 5123
		},
		{
			"bufferView": 26,
			"count": 708,
			"type": "VEC3",
			"componentType": 5126,
			"min": [ -5.16941929, 4.86999989, -0.488436997 ],
			"max": [ 4.85308027, 8.09500027, 0.513750494 ]
		},
		{
			"bufferView": 27,
			"count": 708,
			"type": "VEC3",
			"componentType": 5126
		},
		{
			"bufferView": 28,
			"count": 708,
			"type": "VEC4",
			"componentType": 5126
		},
		{
			"bufferView": 29,
			"count": 708,
			"type": "VEC2",
			"componentType": 5126
		},
		{
			"bufferView": 30,
			"count": 6312,
			"type": "SCALAR",
			"componentType": 5123
		},
		{
			"bufferView": 31,
			"count": 2678,
			"type": "VEC3",
			"componentType": 5126,
			"min": [ -6.0494194, 0.0177440625, -1.08124995 ],
			"max": [ 5.73558044, 4.94999981, 1.02687502 ]
		},
		{
			"bufferView": 32,
			"count": 2678,
			"type": "VEC3",
			"componentType": 5126
		},
		{
			"bufferView": 33,
			"count": 2678,
			"type": "VEC4",
			"componentType": 5126
		},
		{
			"bufferView": 34,
			"count": 2678,
			"type": "VEC2",
			"componentType": 5126
		},
		{
			"bufferView": 35,
			"count": 5616,
			"type": "SCALAR",
			"componentType": 5123
		},
		{
			"bufferView": 36,
			"count": 2772,
			"type": "VEC3",
			"componentType": 5126,
			"min": [ -2.15566969, 7.16499996, -0.609999418 ],
			"max": [ 1.88058031, 7.99499989, 0.604688108 ]
		},
		{
			"bufferView": 37,
			"count": 2772,
			"type": "VEC3",
			"componentType": 5126
		},
		{
			"bufferView": 38,
			"count": 2772,
			"type": "VEC4",
			"componentType": 5126
		},
		{
			"bufferView": 39,
			"count": 2772,
			"type": "VEC2",
			"componentType": 5126
		},
		{
			"bufferView": 40,
			"count": 198,
			"type": "SCALAR",
			"componentType": 5121
		},
		{
			"bufferView": 41,
			"count": 94,
			"type": "VEC3",
			"componentType": 5126,
			"min": [ -2.46566963, 4.95499992, -0.375937104 ],
			"max": [ 2.15058017, 6.71000004, 0.405937999 ]
		},
		{
			"bufferView": 42,
			"count": 94,
			"type": "VEC3",
			"componentType": 5126
		},
		{
			"bufferView": 43,
			"count": 94,
			"type": "VEC4",
			"componentType": 5126
		},
		{
			"bufferView": 44,
			"count": 94,
			"type": "VEC2",
			"componentType": 5126
		},
		{
			"bufferView": 45,
			"count": 5184,
			"type": "SCALAR",
			"componentType": 5123
		},
		{
			"bufferView": 46,
			"count": 1185,
			"type": "VEC3",
			"componentType": 5126,
			"min": [ -2.54941964, 8.47000027, -0.0578508936 ],
			"max": [ 2.28183031, 9.40499973, 0.110938162 ]
		},
		{
			"bufferView": 47,
			"count": 1185,
			"type": "VEC3",
			"componentType": 5126
		},
		{
			"bufferView": 48,
			"count": 1185,
			"type": "VEC4",
			"componentType": 5126
		},
		{
			"bufferView": 49,
			"count": 1185,
			"type": "VEC2",
			"componentType": 5126
		},
		{
			"bufferView": 50,
			"count": 48576,
			"type": "SCALAR",
			"componentType": 5123
		},
		{
			"bufferView": 51,
			"count": 11248,
			"type": "VEC3",
			"componentType": 5126,
			"min": [ -2.5581696, 1.1099999, -1.15749991 ],
			"max": [ 2.24433017, 2.00750017, 1.0718751 ]
		},
		{
			"bufferView": 52,
			"count": 11248,
			"type": "VEC3",
			"componentType": 5126
		},
		{
			"bufferView": 53,
			"count": 11248,
			"type": "VEC4",
			"componentType": 5126
		},
		{
			"bufferView": 54,
			"count": 11248,
			"type": "VEC2",
			"componentType": 5126
		}
	],
	"buffers": [
		{
			"uri": "大牌坊.bin",
			"byteLength": 1333636
		}
	],
	"bufferViews": [
		{
			"buffer": 0,
			"byteLength": 4896,
			"target": 34963
		},
		{
			"buffer": 0,
			"byteLength": 14220,
			"byteOffset": 4896,
			"target": 34962
		},
		{
			"buffer": 0,
			"byteLength": 14220,
			"byteOffset": 19116,
			"target": 34962
		},
		{
			"buffer": 0,
			"byteLength": 18960,
			"byteOffset": 33336,
			"target": 34962
		},
		{
			"buffer": 0,
			"byteLength": 9480,
			"byteOffset": 52296,
			"target": 34962
		},
		{
			"buffer": 0,
			"byteLength": 264,
			"byteOffset": 61776,
			"target": 34963
		},
		{
			"buffer": 0,
			"byteLength": 2232,
			"byteOffset": 62040,
			"target": 34962
		},
		{
			"buffer": 0,
			"byteLength": 2232,
			"byteOffset": 64272,
			"target": 34962
		},
		{
			"buffer": 0,
			"byteLength": 2976,
			"byteOffset": 66504,
			"target": 34962
		},
		{
			"buffer": 0,
			"byteLength": 1488,
			"byteOffset": 69480,
			"target": 34962
		},
		{
			"buffer": 0,
			"byteLength": 22260,
			"byteOffset": 70968,
			"target": 34963
		},
		{
			"buffer": 0,
			"byteLength": 48060,
			"byteOffset": 93228,
			"target": 34962
		},
		{
			"buffer": 0,
			"byteLength": 48060,
			"byteOffset": 141288,
			"target": 34962
		},
		{
			"buffer": 0,
			"byteLength": 64080,
			"byteOffset": 189348,
			"target": 34962
		},
		{
			"buffer": 0,
			"byteLength": 32040,
			"byteOffset": 253428,
			"target": 34962
		},
		{
			"buffer": 0,
			"byteLength": 276,
			"byteOffset": 285468,
			"target": 34963
		},
		{
			"buffer": 0,
			"byteLength": 2304,
			"byteOffset": 285744,
			"target": 34962
		},
		{
			"buffer": 0,
			"byteLength": 2304,
			"byteOffset": 288048,
			"target": 34962
		},
		{
			"buffer": 0,
			"byteLength": 3072,
			"byteOffset": 290352,
			"target": 34962
		},
		{
			"buffer": 0,
			"byteLength": 1536,
			"byteOffset": 293424,
			"target": 34962
		},
		{
			"buffer": 0,
			"byteLength": 330,
			"byteOffset": 294960,
			"target": 34963
		},
		{
			"buffer": 0,
			"byteLength": 1932,
			"byteOffset": 295292,
			"target": 34962
		},
		{
			"buffer": 0,
			"byteLength": 1932,
			"byteOffset": 297224,
			"target": 34962
		},
		{
			"buffer": 0,
			"byteLength": 2576,
			"byteOffset": 299156,
			"target": 34962
		},
		{
			"buffer": 0,
			"byteLength": 1288,
			"byteOffset": 301732,
			"target": 34962
		},
		{
			"buffer": 0,
			"byteLength": 2160,
			"byteOffset": 303020,
			"target": 34963
		},
		{
			"buffer": 0,
			"byteLength": 8496,
			"byteOffset": 305180,
			"target": 34962
		},
		{
			"buffer": 0,
			"byteLength": 8496,
			"byteOffset": 313676,
			"target": 34962
		},
		{
			"buffer": 0,
			"byteLength": 11328,
			"byteOffset": 322172,
			"target": 34962
		},
		{
			"buffer": 0,
			"byteLength": 5664,
			"byteOffset": 333500,
			"target": 34962
		},
		{
			"buffer": 0,
			"byteLength": 12624,
			"byteOffset": 339164,
			"target": 34963
		},
		{
			"buffer": 0,
			"byteLength": 32136,
			"byteOffset": 351788,
			"target": 34962
		},
		{
			"buffer": 0,
			"byteLength": 32136,
			"byteOffset": 383924,
			"target": 34962
		},
		{
			"buffer": 0,
			"byteLength": 42848,
			"byteOffset": 416060,
			"target": 34962
		},
		{
			"buffer": 0,
			"byteLength": 21424,
			"byteOffset": 458908,
			"target": 34962
		},
		{
			"buffer": 0,
			"byteLength": 11232,
			"byteOffset": 480332,
			"target": 34963
		},
		{
			"buffer": 0,
			"byteLength": 33264,
			"byteOffset": 491564,
			"target": 34962
		},
		{
			"buffer": 0,
			"byteLength": 33264,
			"byteOffset": 524828,
			"target": 34962
		},
		{
			"buffer": 0,
			"byteLength": 44352,
			"byteOffset": 558092,
			"target": 34962
		},
		{
			"buffer": 0,
			"byteLength": 22176,
			"byteOffset": 602444,
			"target": 34962
		},
		{
			"buffer": 0,
			"byteLength": 198,
			"byteOffset": 624620,
			"target": 34963
		},
		{
			"buffer": 0,
			"byteLength": 1128,
			"byteOffset": 624820,
			"target": 34962
		},
		{
			"buffer": 0,
			"byteLength": 1128,
			"byteOffset": 625948,
			"target": 34962
		},
		{
			"buffer": 0,
			"byteLength": 1504,
			"byteOffset": 627076,
			"target": 34962
		},
		{
			"buffer": 0,
			"byteLength": 752,
			"byteOffset": 628580,
			"target": 34962
		},
		{
			"buffer": 0,
			"byteLength": 10368,
			"byteOffset": 629332,
			"target": 34963
		},
		{
			"buffer": 0,
			"byteLength": 14220,
			"byteOffset": 639700,
			"target": 34962
		},
		{
			"buffer": 0,
			"byteLength": 14220,
			"byteOffset": 653920,
			"target": 34962
		},
		{
			"buffer": 0,
			"byteLength": 18960,
			"byteOffset": 668140,
			"target": 34962
		},
		{
			"buffer": 0,
			"byteLength": 9480,
			"byteOffset": 687100,
			"target": 34962
		},
		{
			"buffer": 0,
			"byteLength": 97152,
			"byteOffset": 696580,
			"target": 34963
		},
		{
			"buffer": 0,
			"byteLength": 134976,
			"byteOffset": 793732,
			"target": 34962
		},
		{
			"buffer": 0,
			"byteLength": 134976,
			"byteOffset": 928708,
			"target": 34962
		},
		{
			"buffer": 0,
			"byteLength": 179968,
			"byteOffset": 1063684,
			"target": 34962
		},
		{
			"buffer": 0,
			"byteLength": 89984,
			"byteOffset": 1243652,
			"target": 34962
		}
	],
	"images": [
		{
			"uri": "民宅院墙瓦CJ_BaseColor.png"
		},
		{
			"uri": "大牌坊底座图CZ_BaseColor.png"
		},
		{
			"uri": "寺庙屋檐尾图_BaseColor.png"
		},
		{
			"uri": "大牌坊石梁CZ_BaseColor.png"
		},
		{
			"uri": "大牌坊石柱图CZ_BaseColor.png"
		},
		{
			"uri": "石斗拱CJ_BaseColor.png"
		},
		{
			"uri": "大牌坊次吻CZ_BaseColor.png"
		},
		{
			"uri": "大牌坊石像CZ_BaseColor.png"
		},
		{
			"uri": "民宅院墙瓦法线图.png"
		},
		{
			"uri": "大牌坊底座法线图.png"
		},
		{
			"uri": "寺庙屋檐尾法线图.png"
		},
		{
			"uri": "大牌坊石梁法线图.png"
		},
		{
			"uri": "大牌坊柱法线图.png"
		},
		{
			"uri": "石斗拱法线图.png"
		},
		{
			"uri": "大牌坊次吻法线图.png"
		},
		{
			"uri": "大牌坊石像法线图.png"
		}
	],
	"materials": [
		{
			"name": "民宅院墙瓦CJ",
			"pbrMetallicRoughness":
			{
				"baseColorTexture":
				{
					"index": 0
				},
				"metallicFactor": 0,
				"roughnessFactor": 0.800000072
			},
			"normalTexture":
			{
				"index": 1
			},
			"alphaMode": "MASK",
			"alphaCutoff": 0.333299994,
			"doubleSided": true
		},
		{
			"name": "大牌坊底座图CZ",
			"pbrMetallicRoughness":
			{
				"baseColorTexture":
				{
					"index": 2
				},
				"metallicFactor": 0,
				"roughnessFactor": 0.800000072
			},
			"normalTexture":
			{
				"index": 3
			},
			"alphaMode": "MASK",
			"alphaCutoff": 0.333299994
		},
		{
			"name": "寺庙屋檐尾图",
			"pbrMetallicRoughness":
			{
				"baseColorTexture":
				{
					"index": 4
				},
				"metallicFactor": 0,
				"roughnessFactor": 0.800000072
			},
			"normalTexture":
			{
				"index": 5
			},
			"alphaMode": "MASK",
			"alphaCutoff": 0.333299994
		},
		{
			"name": "大牌坊石梁CZ",
			"pbrMetallicRoughness":
			{
				"baseColorTexture":
				{
					"index": 6
				},
				"metallicFactor": 0,
				"roughnessFactor": 0.800000072
			},
			"normalTexture":
			{
				"index": 7
			},
			"alphaMode": "MASK",
			"alphaCutoff": 0.333299994
		},
		{
			"name": "大牌坊石柱图CZ",
			"pbrMetallicRoughness":
			{
				"baseColorTexture":
				{
					"index": 8
				},
				"metallicFactor": 0,
				"roughnessFactor": 0.800000072
			},
			"normalTexture":
			{
				"index": 9
			},
			"alphaMode": "MASK",
			"alphaCutoff": 0.333299994
		},
		{
			"name": "石斗拱CJ",
			"pbrMetallicRoughness":
			{
				"baseColorTexture":
				{
					"index": 10
				},
				"metallicFactor": 0,
				"roughnessFactor": 0.800000072
			},
			"normalTexture":
			{
				"index": 11
			},
			"alphaMode": "MASK",
			"alphaCutoff": 0.333299994
		},
		{
			"name": "大牌坊次吻CZ",
			"pbrMetallicRoughness":
			{
				"baseColorTexture":
				{
					"index": 12
				},
				"metallicFactor": 0,
				"roughnessFactor": 0.800000072
			},
			"normalTexture":
			{
				"index": 13
			},
			"alphaMode": "MASK",
			"alphaCutoff": 0.333299994
		},
		{
			"name": "大牌坊石像CZ",
			"pbrMetallicRoughness":
			{
				"baseColorTexture":
				{
					"index": 14
				},
				"metallicFactor": 0,
				"roughnessFactor": 0.800000072
			},
			"normalTexture":
			{
				"index": 15
			},
			"alphaMode": "MASK",
			"alphaCutoff": 0.333299994
		}
	],
	"meshes": [
		{
			"name": "大牌坊",
			"primitives": [
				{
					"attributes":
					{
						"POSITION": 1,
						"NORMAL": 2,
						"TANGENT": 3,
						"TEXCOORD_0": 4
					},
					"indices": 0,
					"material": 0
				},
				{
					"attributes":
					{
						"POSITION": 6,
						"NORMAL": 7,
						"TANGENT": 8,
						"TEXCOORD_0": 9
					},
					"indices": 5,
					"material": 1
				},
				{
					"attributes":
					{
						"POSITION": 11,
						"NORMAL": 12,
						"TANGENT": 13,
						"TEXCOORD_0": 14
					},
					"indices": 10,
					"material": 2
				},
				{
					"attributes":
					{
						"POSITION": 16,
						"NORMAL": 17,
						"TANGENT": 18,
						"TEXCOORD_0": 19
					},
					"indices": 15,
					"material": 3
				},
				{
					"attributes":
					{
						"POSITION": 21,
						"NORMAL": 22,
						"TANGENT": 23,
						"TEXCOORD_0": 24
					},
					"indices": 20,
					"material": 4
				},
				{
					"attributes":
					{
						"POSITION": 26,
						"NORMAL": 27,
						"TANGENT": 28,
						"TEXCOORD_0": 29
					},
					"indices": 25,
					"material": 3
				},
				{
					"attributes":
					{
						"POSITION": 31,
						"NORMAL": 32,
						"TANGENT": 33,
						"TEXCOORD_0": 34
					},
					"indices": 30,
					"material": 1
				},
				{
					"attributes":
					{
						"POSITION": 36,
						"NORMAL": 37,
						"TANGENT": 38,
						"TEXCOORD_0": 39
					},
					"indices": 35,
					"material": 5
				},
				{
					"attributes":
					{
						"POSITION": 41,
						"NORMAL": 42,
						"TANGENT": 43,
						"TEXCOORD_0": 44
					},
					"indices": 40,
					"material": 4
				},
				{
					"attributes":
					{
						"POSITION": 46,
						"NORMAL": 47,
						"TANGENT": 48,
						"TEXCOORD_0": 49
					},
					"indices": 45,
					"material": 6
				},
				{
					"attributes":
					{
						"POSITION": 51,
						"NORMAL": 52,
						"TANGENT": 53,
						"TEXCOORD_0": 54
					},
					"indices": 50,
					"material": 7
				}
			]
		}
	],
	"nodes": [
		{
			"mesh": 0
		}
	],
	"samplers": [
		{
			"minFilter": 9987,
			"magFilter": 9729
		}
	],
	"scenes": [
		{
			"nodes": [ 0 ]
		}
	],
	"textures": [
		{
			"name": "民宅院墙瓦CJ_BaseColor",
			"sampler": 0,
			"source": 0
		},
		{
			"name": "民宅院墙瓦法线图",
			"sampler": 0,
			"source": 8
		},
		{
			"name": "大牌坊底座图CZ_BaseColor",
			"sampler": 0,
			"source": 1
		},
		{
			"name": "大牌坊底座法线图",
			"sampler": 0,
			"source": 9
		},
		{
			"name": "寺庙屋檐尾图_BaseColor",
			"sampler": 0,
			"source": 2
		},
		{
			"name": "寺庙屋檐尾法线图",
			"sampler": 0,
			"source": 10
		},
		{
			"name": "大牌坊石梁CZ_BaseColor",
			"sampler": 0,
			"source": 3
		},
		{
			"name": "大牌坊石梁法线图",
			"sampler": 0,
			"source": 11
		},
		{
			"name": "大牌坊石柱图CZ_BaseColor",
			"sampler": 0,
			"source": 4
		},
		{
			"name": "大牌坊柱法线图",
			"sampler": 0,
			"source": 12
		},
		{
			"name": "石斗拱CJ_BaseColor",
			"sampler": 0,
			"source": 5
		},
		{
			"name": "石斗拱法线图",
			"sampler": 0,
			"source": 13
		},
		{
			"name": "大牌坊次吻CZ_BaseColor",
			"sampler": 0,
			"source": 6
		},
		{
			"name": "大牌坊次吻法线图",
			"sampler": 0,
			"source": 14
		},
		{
			"name": "大牌坊石像CZ_BaseColor",
			"sampler": 0,
			"source": 7
		},
		{
			"name": "大牌坊石像法线图",
			"sampler": 0,
			"source": 15
		}
	]
}