<svg xmlns="http://www.w3.org/2000/svg" class="icon" viewBox="0 0 1034 1024" version="1.1" p-id="10262" height="128" width="128"><path d="M1011.982 842.518L606.673 140.565c-49.575-85.822-130.595-85.822-180.157 0L21.205 842.518c-49.562 85.91-9.015 155.99 90.04 155.99h810.693c99.059-0.001 139.564-70.085 90.044-155.99zM460.924 339.737c14.565-15.747 33.082-23.622 55.665-23.622 22.595 0 41.095 7.792 55.675 23.307 14.485 15.55 21.725 34.997 21.725 58.382 0 20.12-30.235 168.07-40.32 275.704h-72.825c-8.845-107.635-41.652-255.584-41.652-275.704 0.002-23.03 7.254-42.397 21.732-58.067z m110.32 511.801c-15.32 14.92-33.55 22.355-54.65 22.355-21.095 0-39.33-7.435-54.647-22.355-15.275-14.885-22.867-32.915-22.867-54.09 0-21.065 7.592-39.29 22.867-54.565 15.317-15.28 33.552-22.92 54.647-22.92 21.1 0 39.33 7.64 54.65 22.92 15.265 15.275 22.875 33.5 22.875 54.565 0 21.175-7.61 39.205-22.875 54.09z" fill="#F76160" p-id="10263"/></svg>