<svg xmlns="http://www.w3.org/2000/svg" id="_图层_1" data-name="图层 1" viewBox="0 0 673 264">
  <defs>
    <style>
      .cls-1 {
        fill: currentColor;
      }
    </style>
  </defs>
  <polygon class="cls-1" points="16.79 0 0 0 0 19.95 18.37 1.58 16.79 0"/>
  <polygon class="cls-1" points="420.19 0 380.92 0 116.92 264 159.35 264 421.77 1.58 420.19 0"/>
  <polygon class="cls-1" points="285.72 0 246.46 0 0 246.46 0 264 24.89 264 287.3 1.58 285.72 0"/>
  <polygon class="cls-1" points="673 111.32 520.32 264 562.75 264 673 153.75 673 111.32"/>
  <polygon class="cls-1" points="151.26 0 111.99 0 0 111.99 0 154.42 152.84 1.58 151.26 0"/>
  <polygon class="cls-1" points="673 0 649.86 0 385.86 264 428.28 264 673 19.28 673 0"/>
  <polygon class="cls-1" points="554.65 0 515.39 0 251.39 264 293.82 264 556.23 1.58 554.65 0"/>
  <polygon class="cls-1" points="673 245.79 654.79 264 673 264 673 245.79"/>
</svg>