<svg xmlns:xlink="http://www.w3.org/1999/xlink" xmlns="http://www.w3.org/2000/svg" version="1.1" width="40px" height="40px">
  <g transform="matrix(1 0 0 1 -194 -12 )">
    <path d="M 34.56640625 7.384375  L 39.25859375 2.6921875  L 37.312109375 0.75  L 32.62421875 5.437890625  C 30.016015625 3.263671875  26.66015625 1.957421875  23.003515625 1.957421875  C 14.69765625 1.957421875  7.96015625 8.690625  7.96015625 17.00078125  C 7.96015625 20.66171875  9.26640625 24.01328125  11.440625 26.621484375  L 5.979296875 32.0828125  L 4.862109375 30.99140625  L 0.719921874999999 39.237109375  L 9 35.051953125  L 7.938671875 34.012109375  L 13.3828125 28.56796875  C 15.991015625 30.737890625  19.342578125 32.044140625  22.99921875 32.044140625  C 31.305078125 32.044140625  38.042578125 25.3109375  38.042578125 17.00078125  C 38.042578125 13.344140625  36.736328125 9.992578125  34.56640625 7.384375  Z " fill-rule="nonzero" fill="#0000ff" stroke="none" transform="matrix(1 0 0 1 194 12 )"/>
  </g>
</svg>